<svg xmlns="http://www.w3.org/2000/svg" width="500" height="500" viewBox="0 0 500 500" version="1.1"><path d="M 198.500 118.285 C 83.176 192.582, 86.500 190.364, 86.500 193.019 C 86.500 195.489, 86.552 195.502, 98.096 196 C 109.324 196.484, 109.878 196.616, 115.587 200.165 C 120.128 202.988, 122.194 205.114, 124.575 209.413 C 131.262 221.490, 133.184 222.434, 153.228 223.484 C 171.221 224.427, 175.725 223.352, 182.362 216.533 C 188.926 209.790, 199.736 201.426, 204.414 199.471 C 208.702 197.680, 218.878 197.329, 221.763 198.873 C 223.889 200.011, 226 204.787, 226 208.458 C 226 209.645, 224.672 214.257, 223.048 218.706 C 217.669 233.445, 217.826 236.370, 225.070 256.328 C 230.992 272.644, 230.241 280.961, 221.998 290.349 C 220.203 292.394, 218.919 294.252, 219.145 294.478 C 219.370 294.704, 223.368 296.989, 228.028 299.556 C 237.962 305.030, 237.372 304.589, 236.549 305.921 C 235.975 306.849, 221.095 299.771, 217.250 296.740 C 216.441 296.103, 216 296.100, 216 296.733 C 216 297.270, 218.813 299.657, 222.250 302.037 C 232.383 309.051, 237.224 313.429, 242 319.896 C 245.468 324.592, 246.959 325.879, 248.500 325.508 C 249.600 325.244, 251.565 325.021, 252.867 325.014 C 255.564 324.998, 255.756 326.076, 250.462 311.500 C 245.578 298.050, 244.873 288.964, 247.974 279.403 C 250.739 270.874, 256.941 260.069, 261.060 256.603 C 268.474 250.364, 276 255.817, 276 267.427 C 276 270.757, 274.831 274.250, 271.478 280.936 C 266.222 291.420, 264.790 297.552, 266.042 304.219 C 267.116 309.942, 270.582 317.021, 272.270 316.943 C 274.007 316.863, 281.981 306.795, 288.149 296.894 C 294.111 287.324, 303.881 266.363, 306.830 256.814 C 309.982 246.611, 309.891 243.200, 306.335 238.298 C 298.039 226.861, 300.139 214.896, 311.468 209.059 C 315.594 206.933, 318.105 206.441, 326.298 206.154 C 338.455 205.727, 342.586 206.450, 345.414 209.502 L 347.611 211.872 356.240 210.186 C 364.630 208.547, 364.885 208.414, 365.454 205.387 C 366.122 201.831, 368.196 199.649, 372.502 197.970 C 376.037 196.592, 383.141 196.579, 387.840 197.943 C 390.556 198.731, 391.080 198.651, 390.645 197.517 C 390.283 196.573, 390.981 196.022, 392.805 195.811 C 394.667 195.596, 395.594 194.842, 395.804 193.371 C 396.061 191.571, 390.926 187.886, 362.572 169.525 L 329.037 147.807 328.769 125.154 L 328.500 102.500 317.645 102.215 C 310.498 102.028, 306.313 102.326, 305.395 103.088 C 304.329 103.972, 304 107.401, 304 117.622 C 304 124.980, 303.748 131, 303.440 131 C 303.133 131, 289.520 122.370, 273.190 111.822 C 256.861 101.274, 242.600 92.470, 241.500 92.257 C 240.173 92.001, 225.697 100.763, 198.500 118.285 M 201.750 124.450 C 180.438 138.279, 149.296 158.348, 132.547 169.047 C 115.798 179.746, 102.073 188.838, 102.047 189.250 C 102.021 189.662, 104.918 190, 108.485 190 C 114.827 190, 115.129 189.877, 122.186 184.424 C 131.417 177.292, 145.047 170.685, 156.500 167.789 C 164.151 165.855, 168.049 165.519, 182.500 165.546 C 196.952 165.573, 200.752 165.916, 207.855 167.837 C 222.643 171.836, 234.388 177.031, 246.538 184.949 L 249.577 186.928 254.038 183.908 C 265.575 176.100, 283.438 168.980, 297.760 166.483 C 309.777 164.387, 325.822 164.591, 338.215 166.997 C 343.872 168.095, 348.686 168.995, 348.913 168.997 C 349.139 168.999, 340.139 163.112, 328.913 155.915 C 317.686 148.719, 306.925 141.786, 305 140.510 C 295.017 133.890, 243.698 100.917, 242.220 100.172 C 240.894 99.505, 231.632 105.061, 201.750 124.450 M 311 122.473 L 311 135.947 316.195 139.445 C 319.052 141.369, 321.582 142.752, 321.816 142.517 C 322.199 142.134, 322.357 126.120, 322.099 113.750 L 322 109 316.500 109 L 311 109 311 122.473 M 110.727 202.750 C 116.844 208.474, 121.908 219.422, 123.447 230.250 C 124.225 235.720, 123.316 236.225, 119.522 232.431 C 115.782 228.691, 113.500 229.547, 113.500 234.689 C 113.500 236.968, 113.182 239.152, 112.792 239.541 C 112.403 239.930, 110.659 239.049, 108.917 237.583 C 105.310 234.549, 104.643 234.801, 104.385 239.299 C 104.284 241.059, 102.036 247.225, 99.390 253 C 94.909 262.778, 94.575 264.064, 94.539 271.700 C 94.506 278.596, 94.898 280.634, 97 284.513 C 99.165 288.507, 99.835 289.051, 102 288.572 C 114.816 285.731, 115.707 285.716, 114.695 288.353 C 114.376 289.184, 112.083 290.076, 109.273 290.462 C 102.519 291.391, 101.463 292.204, 104.013 294.511 C 105.794 296.124, 106.516 296.215, 109.357 295.188 C 113.645 293.637, 115 293.689, 115 295.402 C 115 296.173, 113.537 297.315, 111.750 297.940 L 108.500 299.075 111.833 301.188 L 115.165 303.301 117.623 300.651 C 120.134 297.942, 123 297.119, 123 299.106 C 123 299.714, 121.823 301.138, 120.384 302.270 L 117.767 304.328 121.134 306.140 C 122.985 307.136, 127.200 308.841, 130.500 309.928 C 133.800 311.015, 139.806 313.051, 143.846 314.452 C 156.001 318.668, 162.602 317.919, 180.152 310.330 C 186.376 307.639, 186.714 307.329, 185.399 305.530 C 183.153 302.459, 185.634 300.879, 188.054 303.839 C 189.961 306.173, 189.976 306.175, 194.549 304.428 L 199.132 302.678 196.483 300.222 C 192.429 296.463, 194.910 294.931, 199.447 298.392 L 202.987 301.092 207.493 298.451 C 209.971 296.999, 212.221 295.451, 212.493 295.011 C 212.765 294.572, 211.156 293.479, 208.918 292.584 C 206.586 291.651, 205.032 290.431, 205.278 289.728 C 205.792 288.260, 208.280 288.602, 212.910 290.777 L 216.320 292.380 219.235 288.940 C 223.851 283.492, 226 278.525, 226.003 273.290 C 226.007 267.242, 218.600 245.454, 215.386 242.061 C 213.156 239.706, 213.008 239.683, 211.101 241.409 C 208.498 243.765, 207 242.681, 207 238.441 C 207 234.590, 205.649 233.987, 203.768 237 C 201.798 240.154, 200 239.438, 200 235.500 C 200 233.575, 199.654 232, 199.232 232 C 198.810 232, 196.777 233.147, 194.714 234.548 C 192.652 235.950, 190.482 236.798, 189.892 236.434 C 186.655 234.433, 195.772 214.302, 203.784 205.760 C 205.198 204.254, 206.125 202.792, 205.846 202.512 C 204.898 201.565, 195.565 208.463, 187.441 216.113 C 182.718 220.562, 177.724 224.303, 175.429 225.113 C 170.371 226.899, 143.619 226.899, 136.354 225.115 C 130.453 223.665, 128.666 222.013, 123.251 213 C 120.651 208.673, 117.745 205.413, 114.560 203.250 C 108.714 199.280, 106.745 199.023, 110.727 202.750 M 210.632 203.075 C 206.922 205.993, 199.646 216.455, 196.075 224.006 C 194.414 227.517, 193.239 230.573, 193.463 230.797 C 193.687 231.021, 194.900 230.483, 196.158 229.602 C 199.291 227.407, 202.080 227.589, 202.718 230.028 C 203.101 231.493, 203.782 231.887, 205.172 231.445 C 207.526 230.698, 210 232.583, 210 235.122 C 210 236.522, 210.729 237, 212.862 237 C 215.591 237, 215.755 236.740, 216.379 231.434 C 216.739 228.373, 218.151 222.669, 219.516 218.760 C 222.190 211.108, 222.731 204.131, 220.800 202.200 C 218.925 200.325, 213.538 200.789, 210.632 203.075 M 100.199 205.750 C 97.948 210.718, 98.009 224.006, 100.307 229.324 C 101.644 232.417, 102.342 233.026, 103.960 232.513 C 105.060 232.164, 106.746 232.318, 107.706 232.856 C 109.151 233.664, 109.630 233.286, 110.476 230.666 C 111.354 227.952, 112.035 227.456, 115.250 227.190 C 119.648 226.826, 119.781 226.163, 116.968 218.643 C 114.389 211.750, 109.887 205.510, 106.069 203.536 C 102.095 201.481, 102.141 201.463, 100.199 205.750 M 356.006 213.928 L 347.512 215.611 346.745 220.941 C 344.724 234.982, 331.219 248.842, 320.614 247.760 C 318.351 247.529, 315.768 247.012, 314.873 246.610 C 313.537 246.011, 313.116 246.744, 312.525 250.690 C 311.641 256.589, 309.860 262.013, 305.278 272.756 L 301.757 281.013 305.660 285.256 C 311.407 291.506, 312.707 295.232, 310.925 300.346 C 308.475 307.377, 299.546 311.625, 289.047 310.754 C 282.135 310.181, 280.036 312.142, 280.753 318.501 C 281.215 322.604, 279.888 325.204, 276.806 326.231 C 275.836 326.555, 275.832 327.497, 276.788 330.687 C 278.624 336.815, 278.280 347.888, 276.028 355.145 C 273.847 362.169, 269.565 369.166, 262.161 377.803 C 259.475 380.936, 257.032 384.512, 256.732 385.750 C 256.206 387.923, 256.432 388.001, 263.344 388.022 C 271.353 388.047, 288.298 389.087, 288.874 389.588 C 289.079 389.767, 288.977 390.618, 288.646 391.479 C 288.121 392.849, 286.017 392.961, 271.773 392.380 L 255.500 391.715 251.772 398.994 L 248.044 406.273 259.772 405.726 C 266.222 405.425, 276.113 404.625, 281.750 403.948 C 290.719 402.871, 292 402.480, 292 400.819 C 292 398.240, 295.315 391.927, 297.894 389.595 C 299.052 388.547, 300 387.285, 300 386.790 C 300 383.566, 284.236 363.690, 279.901 361.449 C 276.243 359.557, 276.063 357, 279.586 357 C 282.907 357, 290.909 365.204, 298.134 376.015 C 303.950 384.720, 304.475 384.812, 307.777 377.699 C 310.454 371.932, 310.934 368.660, 311.944 349.316 C 312.861 331.751, 313.849 327, 316.589 327 C 317.898 327, 318.102 327.654, 317.607 330.250 C 317.266 332.038, 316.547 341.375, 316.010 351 C 314.670 375.014, 313.210 379.667, 303.959 389.406 C 298.593 395.055, 297 397.404, 297 399.666 C 297 402.810, 298.549 405, 300.771 405 C 302.379 405, 305 402.594, 305 401.118 C 305 399.038, 307.361 395, 308.577 395 C 310.519 395, 310.756 397.030, 309.305 401.242 C 308.349 404.015, 308.271 405.637, 309.024 407.046 C 311.325 411.343, 317.597 408.087, 319.706 401.500 C 320.234 399.850, 321.304 398.500, 322.083 398.500 C 323.180 398.500, 323.424 399.798, 323.164 404.250 C 322.844 409.723, 322.942 410, 325.192 410 C 328.384 410, 331.366 407.758, 334.168 403.251 C 336.483 399.528, 336.504 399.198, 337.082 359 C 337.402 336.725, 338.017 317.488, 338.449 316.250 C 338.910 314.928, 340.058 314, 341.233 314 C 342.933 314, 343.119 314.413, 342.473 316.750 C 342.055 318.262, 341.525 337.530, 341.296 359.567 L 340.878 399.633 345.489 403.883 C 350.251 408.272, 351.601 408.580, 353.421 405.694 C 354.187 404.480, 354.150 403.469, 353.287 402.089 C 352.339 400.569, 352.370 399.938, 353.438 399.052 C 354.482 398.185, 355.636 398.734, 358.556 401.488 C 364.426 407.024, 370 407.532, 370 402.531 C 370 401.139, 369.100 399.100, 368 398 C 366.900 396.900, 366 395.325, 366 394.500 C 366 391.775, 368.791 392.937, 372.416 397.173 C 374.380 399.468, 376.296 401.037, 376.673 400.660 C 377.799 399.534, 374.602 393.895, 369.113 387.326 C 361.334 378.016, 359.866 373.929, 359.916 361.713 C 359.963 350.294, 362.726 332.619, 366.500 319.597 C 367.875 314.852, 369 309.234, 369 307.113 C 369 303.431, 368.829 303.228, 365.250 302.642 C 360.385 301.847, 349.778 296.784, 344.928 292.943 C 338.792 288.083, 334.726 280, 338.418 280 C 339.199 280, 340.742 281.462, 341.848 283.250 C 347.049 291.653, 357.604 297.337, 372.035 299.505 C 392.396 302.565, 407.061 297.302, 413.849 284.500 C 416.231 280.007, 416.500 278.435, 416.500 269 C 416.500 256.162, 415.068 253.058, 406.954 248.306 C 398.318 243.248, 396.957 242.037, 396.319 238.845 C 395.965 237.076, 394.852 235.511, 393.609 235.033 C 390.359 233.783, 386.787 230.057, 382.045 222.972 C 375.164 212.689, 374.319 211.982, 369.076 212.123 C 366.559 212.190, 360.678 213.003, 356.006 213.928 M 94.705 224.669 C 92.301 228.563, 90.794 239.125, 90.447 254.500 C 90.072 271.130, 90.095 271.363, 91.507 265.225 C 92.300 261.774, 94.812 254.944, 97.087 250.046 L 101.224 241.141 98.221 232.490 C 96.569 227.732, 94.987 224.212, 94.705 224.669 M 376.388 231.433 C 368.577 234.833, 366.773 241.394, 372.011 247.360 C 375.567 251.410, 379.212 252.569, 383.201 250.917 C 388.519 248.714, 390.709 240.206, 387.537 234.072 C 385.312 229.769, 382.007 228.987, 376.388 231.433 M 402.757 234.278 C 399.624 235.852, 399.174 236.456, 399.994 237.990 C 401.121 240.094, 407.832 244.502, 408.655 243.678 C 409.367 242.967, 408.019 233.097, 407.156 232.700 C 406.795 232.534, 404.816 233.244, 402.757 234.278 M 379.545 235.750 C 381.392 240.007, 381.218 243.734, 379.101 245.216 C 376.870 246.779, 377.269 248, 380.012 248 C 382.334 248, 384.857 244.965, 385.592 241.289 C 386.061 238.943, 385.706 237.706, 384.104 236.104 C 381.464 233.464, 378.452 233.230, 379.545 235.750 M 345 237.565 C 340.169 240.944, 339 242.793, 339 247.056 C 339 257.984, 353.964 261.435, 358.658 251.590 C 361.622 245.376, 357.710 237.754, 350.500 235.690 C 349.259 235.335, 347.172 236.046, 345 237.565 M 347.658 240.771 C 345.935 241.156, 345.951 241.277, 347.908 242.648 C 350.387 244.385, 350.711 249.146, 348.500 251.357 C 347.675 252.182, 347 253.114, 347 253.429 C 347 254.767, 350.936 253.838, 353.365 251.927 C 356.591 249.390, 356.858 245.086, 353.952 242.457 C 351.743 240.458, 350.526 240.132, 347.658 240.771 M 121.207 250.509 C 118.848 251.534, 117.333 253.254, 115.865 256.572 C 113.367 262.219, 113.946 266.674, 117.662 270.389 C 125.058 277.785, 136.060 274.876, 138.358 264.916 C 139.187 261.326, 135.331 254.068, 131.102 251.258 C 127.178 248.650, 125.736 248.541, 121.207 250.509 M 174.939 251.643 C 163.277 258.885, 167.374 274, 181 274 C 188.981 274, 193 269.926, 193 261.835 C 193 258.440, 192.356 257.120, 189.118 253.882 C 185.928 250.693, 184.545 250.005, 181.368 250.027 C 179.240 250.041, 176.348 250.769, 174.939 251.643 M 124 252.706 C 118.441 254.738, 115.513 262.082, 118.466 266.588 C 120.911 270.320, 126.024 272.236, 129.915 270.880 C 133.040 269.790, 134.122 268, 131.655 268 C 129.667 268, 127 264.660, 127 262.171 C 127 260.977, 127.972 259.028, 129.161 257.839 L 131.321 255.679 129.050 253.839 C 126.652 251.897, 126.380 251.836, 124 252.706 M 390.388 252.980 C 386.845 254.412, 383.800 259.069, 384.524 261.951 C 385.390 265.402, 386.701 266.807, 391.195 269.100 C 394.576 270.825, 394.951 271.372, 394.395 273.777 C 392.677 281.211, 383.787 288, 375.772 288 C 368.950 288, 362.699 284.186, 361.840 279.500 C 361.247 276.272, 358.540 277.090, 358.198 280.601 C 357.955 283.096, 358.587 284.308, 361.434 286.808 C 369.506 293.895, 380.807 294.083, 389.723 287.278 C 393.761 284.195, 394.613 283.902, 396.360 284.993 C 400.108 287.333, 403.555 287.807, 406.830 286.430 C 408.573 285.696, 410 284.384, 410 283.514 C 410 282.204, 409.181 282.040, 405.242 282.562 C 401.260 283.090, 400.190 282.867, 398.674 281.192 C 397.088 279.439, 397.011 278.694, 398.059 275.197 C 399.029 271.959, 399.973 270.921, 403.043 269.715 C 409.609 267.136, 411.473 260.533, 407.409 254.250 C 406.129 252.271, 405.143 252.008, 399.227 252.063 C 395.527 252.098, 391.550 252.511, 390.388 252.980 M 176.314 254.950 C 170.166 258.699, 169.230 264.333, 174.077 268.411 C 176.358 270.331, 178.281 271, 181.518 271 C 186.141 271, 188.316 269.577, 185.013 268.714 C 180.399 267.507, 180.398 258.493, 185.012 257.287 C 187.697 256.584, 187.513 255.555, 184.453 254.161 C 181.010 252.592, 180.025 252.687, 176.314 254.950 M 262.106 259.750 C 258.273 263.596, 252.480 274.381, 250.451 281.448 C 247.494 291.746, 249.934 304.354, 258.788 324.519 C 262.049 331.947, 263.654 340.257, 262.622 344.370 C 262.280 345.732, 260.843 348.221, 259.429 349.902 C 258.014 351.584, 257.130 353.401, 257.463 353.941 C 257.797 354.480, 258.074 359.959, 258.080 366.116 C 258.086 372.273, 258.457 376.903, 258.905 376.405 C 272.684 361.101, 277.869 345.293, 273.500 331.907 C 272.530 328.933, 271.353 326.013, 270.885 325.418 C 269.424 323.560, 263.315 307.675, 262.648 304 C 261.583 298.128, 263.642 289.561, 268.441 279.903 C 273.682 269.356, 274.342 263.976, 270.927 259.635 C 268.273 256.260, 265.548 256.295, 262.106 259.750 M 146 281.288 C 142.104 283.249, 142.304 286.827, 146.590 291.834 C 149.974 295.788, 150.163 296.327, 148.951 298.592 C 147.390 301.508, 144.310 302.468, 139.446 301.556 C 135.412 300.799, 132.010 296.316, 132.004 291.750 C 132.001 289.974, 131.469 289, 130.500 289 C 128.250 289, 128.613 294.539, 131.161 299.072 C 134.472 304.963, 144.135 307.140, 149.107 303.115 C 151.403 301.255, 151.477 301.262, 154.551 303.607 C 161.288 308.745, 167.930 307.668, 175.952 300.137 C 180.960 295.435, 182.682 291, 179.500 291 C 178.675 291, 178 291.622, 178 292.381 C 178 294.340, 172.200 299.816, 167.634 302.168 C 162.916 304.598, 159.856 304.010, 155.727 299.881 L 152.710 296.863 157.355 292.147 C 162.491 286.932, 163.176 283.937, 159.777 281.557 C 157.108 279.687, 149.476 279.538, 146 281.288 M 92.343 284.500 C 93.611 289.589, 94.202 291, 95.067 291 C 96.539 291, 96.170 289.316, 93.923 285.774 C 92.718 283.876, 92.055 283.341, 92.343 284.500 M 146 284.923 C 146 286.314, 151.022 292, 152.250 292 C 153.450 292, 159 286.096, 159 284.820 C 159 284.369, 156.075 284, 152.500 284 C 148.925 284, 146 284.415, 146 284.923 M 95.428 294.328 C 94.815 295.924, 96.608 301, 97.784 301 C 98.243 301, 99.466 300.380, 100.503 299.621 C 102.301 298.307, 102.309 298.120, 100.671 295.621 C 98.826 292.805, 96.255 292.171, 95.428 294.328 M 208.750 301.572 C 207.238 302.393, 206 303.469, 206 303.964 C 206 304.458, 209.600 307.202, 214 310.061 C 218.400 312.920, 222 315.876, 222 316.629 C 222 317.383, 221.721 318, 221.381 318 C 220.197 318, 208.671 310.650, 205.529 307.891 L 202.368 305.116 197.684 306.800 C 195.108 307.726, 193 308.783, 193 309.148 C 193 309.514, 196.150 312.729, 200 316.294 C 203.850 319.858, 207 323.275, 207 323.887 C 207 326.322, 204.146 324.617, 196.594 317.669 L 188.687 310.396 176.821 315.234 C 161.523 321.471, 154.957 321.792, 140.970 316.990 C 135.910 315.252, 131.403 314.206, 130.955 314.665 C 130.507 315.124, 128.917 320.225, 127.422 326 C 125.092 335, 124.641 339.072, 124.265 354.500 C 123.732 376.384, 125.356 389.414, 129.666 397.816 C 133.069 404.451, 134.745 405.361, 135.182 400.811 C 135.627 396.179, 138.403 396.325, 138.789 401 C 139.234 406.401, 140.212 408.009, 140.917 404.500 C 141.626 400.973, 144.351 400.449, 144.820 403.750 C 144.995 404.988, 145.558 406, 146.070 406 C 147.530 406, 147.168 398.550, 145.073 385.500 C 140.622 357.779, 140.061 347.500, 143 347.500 C 144.190 347.500, 144.547 349.156, 144.725 355.500 C 145.044 366.866, 146.637 372.593, 150.744 377.138 C 152.654 379.253, 154.571 380.765, 155.002 380.499 C 155.932 379.924, 157.336 364.613, 157.432 354 C 157.469 349.875, 157.950 346.365, 158.500 346.200 C 161.345 345.348, 161.320 361.125, 158.442 381.924 C 156.801 393.784, 156.540 407, 157.945 407 C 158.465 407, 159.484 405.762, 160.209 404.250 C 161.731 401.073, 163.490 401.040, 163.522 404.187 C 163.553 407.313, 165.812 407.598, 166.572 404.571 C 167.427 401.164, 169.784 401.281, 170.184 404.750 C 170.991 411.765, 175.273 404.201, 178.099 390.766 C 180.469 379.499, 181.513 360.085, 180.276 350.264 C 179.325 342.715, 179.975 339.575, 182.058 341.658 C 183.948 343.548, 184.394 373.924, 182.679 384 C 181.884 388.675, 181.411 392.804, 181.630 393.176 C 182.117 394.006, 193.199 393.018, 194.275 392.048 C 194.701 391.664, 193.870 388.773, 192.427 385.622 C 190.107 380.554, 189.845 378.890, 190.152 371.172 C 190.446 363.797, 190.993 361.450, 193.694 355.975 C 195.451 352.414, 198.601 347.853, 200.694 345.839 C 204.487 342.191, 211.313 338.647, 212.418 339.752 C 213.663 340.996, 212.854 342.034, 209.182 343.907 C 204.308 346.394, 198.375 352.954, 195.642 358.878 C 192.579 365.517, 192.594 379.792, 195.670 385.500 C 198.380 390.531, 203.264 395.166, 208.750 397.913 C 212.837 399.959, 213.690 400.977, 212.398 402.269 C 211.702 402.964, 205.775 400.424, 201.717 397.691 C 199.215 396.006, 198.407 395.942, 193.717 397.062 C 188.040 398.417, 181.235 402.224, 180.345 404.543 C 180.038 405.344, 180.104 406.788, 180.493 407.750 C 181.138 409.346, 181.269 409.321, 181.988 407.465 C 182.973 404.922, 185.820 402.487, 186.736 403.403 C 187.115 403.781, 186.879 404.964, 186.212 406.032 C 185.545 407.099, 185 408.429, 185 408.986 C 185 410.558, 187.604 410.182, 189.086 408.396 C 191.001 406.089, 195.101 404.701, 196.339 405.939 C 197.024 406.624, 196.759 407.609, 195.521 408.976 C 193.709 410.979, 193.736 411, 198.095 410.965 C 200.518 410.946, 206.100 410.224, 210.500 409.360 C 214.900 408.496, 223.757 407.494, 230.182 407.133 C 240.455 406.556, 242.156 406.202, 244.289 404.198 C 253.028 395.989, 257.547 369.687, 253.501 350.588 C 249.775 333.001, 238 316.511, 220.702 304.658 C 213.227 299.536, 212.737 299.409, 208.750 301.572 M 397 302.107 C 393.456 303.248, 388.210 303.900, 382.250 303.939 L 373 304 372.988 307.750 C 372.981 309.813, 371.886 315.438, 370.554 320.250 L 368.134 329 372.817 329.010 C 375.691 329.016, 379.566 329.982, 382.849 331.510 C 385.791 332.879, 388.309 334, 388.443 334 C 389.603 334, 403.656 301.104, 402.753 300.504 C 402.614 300.412, 400.025 301.133, 397 302.107 M 100.701 302.598 C 97.668 304.242, 97.679 304.696, 100.939 312.372 L 102.587 316.253 107.391 310.910 L 112.195 305.567 109.347 303.288 C 106.036 300.638, 104.536 300.519, 100.701 302.598 M 109.470 313.030 L 103.503 319.060 108.218 328.280 C 110.811 333.351, 114.629 340.200, 116.702 343.500 L 120.472 349.500 121.698 340 C 122.373 334.775, 124.027 326.450, 125.375 321.500 C 126.723 316.550, 127.752 312.494, 127.663 312.486 C 127.573 312.479, 124.903 311.241, 121.728 309.736 C 118.553 308.231, 115.839 307, 115.697 307 C 115.554 307, 112.752 309.713, 109.470 313.030 M 287.943 325.057 C 284.997 328.003, 285.622 333.648, 289.186 336.298 C 291.525 338.037, 292.258 338.136, 294.851 337.062 C 298.200 335.675, 300.518 331.207, 299.520 328.063 C 298.835 325.904, 294.263 323, 291.550 323 C 290.697 323, 289.074 323.926, 287.943 325.057 M 251.117 333.190 C 252.338 335.561, 254.112 339.975, 255.060 343 L 256.784 348.500 258.454 345 C 259.934 341.898, 259.972 340.817, 258.794 335.500 L 257.464 329.500 253.181 329.190 L 248.898 328.880 251.117 333.190 M 367.668 333.750 C 366.390 335.877, 363.800 359.956, 364.219 365.801 C 364.830 374.311, 367.394 379.370, 375.439 387.935 C 378.883 391.602, 381.882 395.145, 382.103 395.809 C 382.709 397.627, 412.758 403.200, 415.125 401.933 C 417.717 400.546, 417.469 398.354, 414.500 396.408 C 411.561 394.483, 411.203 392, 413.864 392 C 415.737 392, 421 396.525, 421 398.136 C 421 399.679, 424.044 399.048, 424.687 397.372 C 426.214 393.395, 414.373 388.822, 397.460 386.856 C 389.596 385.942, 386.372 385.911, 385.047 386.739 C 383.776 387.533, 382.947 387.547, 382.187 386.787 C 381.427 386.027, 382.155 383.657, 384.698 378.609 C 389.932 368.216, 392.067 361.270, 392.106 354.500 C 392.163 344.699, 388.020 337.994, 379.782 334.553 C 375.918 332.939, 368.452 332.444, 367.668 333.750 M 147.534 381.250 C 147.902 382.488, 149.489 384.823, 151.060 386.439 C 153.581 389.032, 153.997 389.173, 154.589 387.630 C 155.067 386.384, 154.179 384.890, 151.504 382.440 C 147.083 378.390, 146.645 378.259, 147.534 381.250 M 150.980 400.038 C 149.819 402.206, 150.511 406, 152.067 406 C 152.580 406, 153 404.200, 153 402 C 153 397.502, 152.564 397.078, 150.980 400.038 M 272.500 408.540 C 267.550 409.248, 254.725 409.868, 244 409.917 C 228.896 409.986, 222.181 410.456, 214.215 412.003 C 204.095 413.968, 192.964 414.630, 191.678 413.345 C 191.317 412.984, 188.537 412.579, 185.498 412.444 L 179.974 412.200 184.515 415.667 C 187.259 417.762, 188.947 419.801, 188.778 420.817 C 188.567 422.097, 189.459 422.620, 192.500 423 L 196.500 423.500 196.782 435.250 C 196.952 442.337, 197.466 447, 198.077 447 C 198.635 447, 200.195 445.895, 201.545 444.545 C 203.653 442.438, 204 441.163, 204 435.525 L 204 428.960 209.250 432.050 C 212.137 433.750, 220.542 438.146, 227.927 441.820 C 241.346 448.496, 241.358 448.500, 249.927 448.500 C 257.775 448.500, 259.166 448.182, 266.377 444.739 L 274.254 440.978 273.652 443.989 C 273.145 446.524, 273.362 447, 275.025 447 C 277.353 447, 281 443.643, 281 441.500 C 281 440.415, 282.114 440, 285.025 440 C 288.403 440, 289.203 440.404, 290.005 442.512 C 290.989 445.101, 295.473 447.860, 296.700 446.633 C 297.081 446.253, 296.460 442.401, 295.320 438.073 L 293.248 430.205 300.374 425.669 L 307.500 421.134 307.779 434.067 L 308.058 447 315.307 447 C 323.198 447, 327 445.356, 327 441.943 C 327 440.235, 326.275 440, 321 440 L 315 440 315 427.952 C 315 416.049, 315.033 415.876, 317.750 413.537 C 321.126 410.632, 320.334 409.424, 316.399 411.476 C 312.342 413.591, 310.288 413.379, 307.459 410.550 C 305.344 408.435, 304.611 408.240, 302.088 409.119 C 299.844 409.901, 298.463 409.774, 296.133 408.569 C 292.549 406.715, 285.306 406.707, 272.500 408.540 M 127.110 417.890 C 125.173 419.827, 125 421.101, 125 433.406 C 125 446.612, 125.032 446.804, 127.140 446.253 C 128.380 445.929, 129.951 444.121, 130.878 441.950 C 132.320 438.573, 132.916 438.157, 136.956 437.701 C 140.384 437.315, 142.114 436.436, 144.331 433.956 C 146.901 431.080, 147.173 430.157, 146.752 425.774 C 146.076 418.735, 143.720 416.704, 135.630 416.189 C 130.119 415.838, 128.923 416.077, 127.110 417.890 M 161.736 417.250 C 159.056 419.286, 158.327 422.928, 158.506 433.409 C 158.658 442.401, 158.884 443.488, 160.948 445.159 C 164.109 447.718, 170.967 447.600, 174.365 444.927 C 178.641 441.564, 177.777 440.140, 171.250 439.800 C 166.156 439.534, 165.464 439.243, 165.180 437.250 C 164.900 435.275, 165.300 435, 168.455 435 C 171.393 435, 172.228 434.532, 173.025 432.435 C 174.570 428.370, 174.271 428, 169.430 428 C 165.264 428, 164.889 427.802, 165.180 425.750 C 165.453 423.832, 166.197 423.455, 170.220 423.196 C 173.891 422.960, 175.390 422.320, 176.970 420.312 C 178.086 418.892, 179 417.341, 179 416.865 C 179 415.487, 163.606 415.830, 161.736 417.250 M 346.796 417.750 C 345.264 419.521, 337.678 446.011, 338.475 446.808 C 339.808 448.141, 344.325 445.600, 345.323 442.955 C 346.289 440.395, 346.947 440, 350.244 440 C 353.388 440, 354.216 440.437, 355.005 442.512 C 355.974 445.062, 360.466 447.867, 361.663 446.670 C 362.514 445.820, 356.177 421.190, 354.351 418.250 C 352.674 415.550, 348.914 415.301, 346.796 417.750 M 374.655 417.829 C 373.314 419.311, 373 421.872, 373 431.329 C 373 445.623, 373.829 447, 382.427 447 C 387.155 447, 388.135 446.646, 390.026 444.250 L 392.197 441.500 385.848 441 L 379.500 440.500 379.206 432.655 C 378.854 423.252, 379.798 421.543, 384.890 422.370 C 388.966 423.031, 391 421.702, 391 418.378 C 391 416.090, 390.722 416, 383.655 416 C 377.809 416, 375.972 416.373, 374.655 417.829 M 406 418 C 404.236 419.764, 404 421.333, 404 431.309 C 404 444.915, 404.575 446.061, 411.758 446.751 C 416.244 447.182, 417.157 446.934, 419.425 444.666 C 420.841 443.249, 422 441.643, 422 441.095 C 422 440.548, 419.413 439.965, 416.250 439.800 C 410.863 439.519, 410.500 439.342, 410.500 437 C 410.500 434.833, 410.999 434.459, 414.250 434.190 C 416.590 433.996, 418 433.369, 418 432.521 C 418 431.775, 418.273 430.452, 418.607 429.582 C 419.106 428.280, 418.397 428, 414.607 428 C 410.360 428, 410 427.805, 410 425.500 C 410 423.223, 410.382 423, 414.277 423 C 419.040 423, 422.479 421.102, 423.282 418.031 C 423.782 416.116, 423.360 416, 415.906 416 C 409.333 416, 407.663 416.337, 406 418 M 132 427 C 132 430.901, 132.087 431, 135.481 431 C 138.365 431, 139.070 430.569, 139.593 428.487 C 140.414 425.213, 138.513 423, 134.878 423 C 132.187 423, 132 423.260, 132 427 M 349.161 427.968 C 347.298 433.311, 347.639 435, 350.579 435 C 352.968 435, 353.107 434.760, 352.450 431.750 C 350.961 424.927, 350.433 424.320, 349.161 427.968" stroke="none" fill="#e69c74" fill-rule="evenodd"/><path d="M 0 250.002 L 0 500.004 250.250 499.752 L 500.500 499.500 500.752 249.750 L 501.004 0 250.502 0 L 0 0 0 250.002 M 0.492 250.500 C 0.492 388, 0.608 444.101, 0.750 375.170 C 0.892 306.238, 0.892 193.738, 0.750 125.170 C 0.608 56.601, 0.492 113, 0.492 250.500 M 198.500 118.285 C 83.176 192.582, 86.500 190.364, 86.500 193.019 C 86.500 195.489, 86.552 195.502, 98.096 196 C 109.324 196.484, 109.878 196.616, 115.587 200.165 C 120.128 202.988, 122.194 205.114, 124.575 209.413 C 131.262 221.490, 133.184 222.434, 153.228 223.484 C 171.221 224.427, 175.725 223.352, 182.362 216.533 C 188.926 209.790, 199.736 201.426, 204.414 199.471 C 208.702 197.680, 218.878 197.329, 221.763 198.873 C 223.889 200.011, 226 204.787, 226 208.458 C 226 209.645, 224.672 214.257, 223.048 218.706 C 217.669 233.445, 217.826 236.370, 225.070 256.328 C 230.992 272.644, 230.241 280.961, 221.998 290.349 C 220.203 292.394, 218.919 294.252, 219.145 294.478 C 219.370 294.704, 223.368 296.989, 228.028 299.556 C 237.962 305.030, 237.372 304.589, 236.549 305.921 C 235.975 306.849, 221.095 299.771, 217.250 296.740 C 216.441 296.103, 216 296.100, 216 296.733 C 216 297.270, 218.813 299.657, 222.250 302.037 C 232.383 309.051, 237.224 313.429, 242 319.896 C 245.468 324.592, 246.959 325.879, 248.500 325.508 C 249.600 325.244, 251.565 325.021, 252.867 325.014 C 255.564 324.998, 255.756 326.076, 250.462 311.500 C 245.578 298.050, 244.873 288.964, 247.974 279.403 C 250.739 270.874, 256.941 260.069, 261.060 256.603 C 268.474 250.364, 276 255.817, 276 267.427 C 276 270.757, 274.831 274.250, 271.478 280.936 C 266.222 291.420, 264.790 297.552, 266.042 304.219 C 267.116 309.942, 270.582 317.021, 272.270 316.943 C 274.007 316.863, 281.981 306.795, 288.149 296.894 C 294.111 287.324, 303.881 266.363, 306.830 256.814 C 309.982 246.611, 309.891 243.200, 306.335 238.298 C 298.039 226.861, 300.139 214.896, 311.468 209.059 C 315.594 206.933, 318.105 206.441, 326.298 206.154 C 338.455 205.727, 342.586 206.450, 345.414 209.502 L 347.611 211.872 356.240 210.186 C 364.630 208.547, 364.885 208.414, 365.454 205.387 C 366.122 201.831, 368.196 199.649, 372.502 197.970 C 376.037 196.592, 383.141 196.579, 387.840 197.943 C 390.556 198.731, 391.080 198.651, 390.645 197.517 C 390.283 196.573, 390.981 196.022, 392.805 195.811 C 394.667 195.596, 395.594 194.842, 395.804 193.371 C 396.061 191.571, 390.926 187.886, 362.572 169.525 L 329.037 147.807 328.769 125.154 L 328.500 102.500 317.645 102.215 C 310.498 102.028, 306.313 102.326, 305.395 103.088 C 304.329 103.972, 304 107.401, 304 117.622 C 304 124.980, 303.748 131, 303.440 131 C 303.133 131, 289.520 122.370, 273.190 111.822 C 256.861 101.274, 242.600 92.470, 241.500 92.257 C 240.173 92.001, 225.697 100.763, 198.500 118.285 M 201.750 124.450 C 180.438 138.279, 149.296 158.348, 132.547 169.047 C 115.798 179.746, 102.073 188.838, 102.047 189.250 C 102.021 189.662, 104.918 190, 108.485 190 C 114.827 190, 115.129 189.877, 122.186 184.424 C 131.417 177.292, 145.047 170.685, 156.500 167.789 C 164.151 165.855, 168.049 165.519, 182.500 165.546 C 196.952 165.573, 200.752 165.916, 207.855 167.837 C 222.643 171.836, 234.388 177.031, 246.538 184.949 L 249.577 186.928 254.038 183.908 C 265.575 176.100, 283.438 168.980, 297.760 166.483 C 309.777 164.387, 325.822 164.591, 338.215 166.997 C 343.872 168.095, 348.686 168.995, 348.913 168.997 C 349.139 168.999, 340.139 163.112, 328.913 155.915 C 317.686 148.719, 306.925 141.786, 305 140.510 C 295.017 133.890, 243.698 100.917, 242.220 100.172 C 240.894 99.505, 231.632 105.061, 201.750 124.450 M 311 122.473 L 311 135.947 316.195 139.445 C 319.052 141.369, 321.582 142.752, 321.816 142.517 C 322.199 142.134, 322.357 126.120, 322.099 113.750 L 322 109 316.500 109 L 311 109 311 122.473 M 110.727 202.750 C 116.844 208.474, 121.908 219.422, 123.447 230.250 C 124.225 235.720, 123.316 236.225, 119.522 232.431 C 115.782 228.691, 113.500 229.547, 113.500 234.689 C 113.500 236.968, 113.182 239.152, 112.792 239.541 C 112.403 239.930, 110.659 239.049, 108.917 237.583 C 105.310 234.549, 104.643 234.801, 104.385 239.299 C 104.284 241.059, 102.036 247.225, 99.390 253 C 94.909 262.778, 94.575 264.064, 94.539 271.700 C 94.506 278.596, 94.898 280.634, 97 284.513 C 99.165 288.507, 99.835 289.051, 102 288.572 C 114.816 285.731, 115.707 285.716, 114.695 288.353 C 114.376 289.184, 112.083 290.076, 109.273 290.462 C 102.519 291.391, 101.463 292.204, 104.013 294.511 C 105.794 296.124, 106.516 296.215, 109.357 295.188 C 113.645 293.637, 115 293.689, 115 295.402 C 115 296.173, 113.537 297.315, 111.750 297.940 L 108.500 299.075 111.833 301.188 L 115.165 303.301 117.623 300.651 C 120.134 297.942, 123 297.119, 123 299.106 C 123 299.714, 121.823 301.138, 120.384 302.270 L 117.767 304.328 121.134 306.140 C 122.985 307.136, 127.200 308.841, 130.500 309.928 C 133.800 311.015, 139.806 313.051, 143.846 314.452 C 156.001 318.668, 162.602 317.919, 180.152 310.330 C 186.376 307.639, 186.714 307.329, 185.399 305.530 C 183.153 302.459, 185.634 300.879, 188.054 303.839 C 189.961 306.173, 189.976 306.175, 194.549 304.428 L 199.132 302.678 196.483 300.222 C 192.429 296.463, 194.910 294.931, 199.447 298.392 L 202.987 301.092 207.493 298.451 C 209.971 296.999, 212.221 295.451, 212.493 295.011 C 212.765 294.572, 211.156 293.479, 208.918 292.584 C 206.586 291.651, 205.032 290.431, 205.278 289.728 C 205.792 288.260, 208.280 288.602, 212.910 290.777 L 216.320 292.380 219.235 288.940 C 223.851 283.492, 226 278.525, 226.003 273.290 C 226.007 267.242, 218.600 245.454, 215.386 242.061 C 213.156 239.706, 213.008 239.683, 211.101 241.409 C 208.498 243.765, 207 242.681, 207 238.441 C 207 234.590, 205.649 233.987, 203.768 237 C 201.798 240.154, 200 239.438, 200 235.500 C 200 233.575, 199.654 232, 199.232 232 C 198.810 232, 196.777 233.147, 194.714 234.548 C 192.652 235.950, 190.482 236.798, 189.892 236.434 C 186.655 234.433, 195.772 214.302, 203.784 205.760 C 205.198 204.254, 206.125 202.792, 205.846 202.512 C 204.898 201.565, 195.565 208.463, 187.441 216.113 C 182.718 220.562, 177.724 224.303, 175.429 225.113 C 170.371 226.899, 143.619 226.899, 136.354 225.115 C 130.453 223.665, 128.666 222.013, 123.251 213 C 120.651 208.673, 117.745 205.413, 114.560 203.250 C 108.714 199.280, 106.745 199.023, 110.727 202.750 M 210.632 203.075 C 206.922 205.993, 199.646 216.455, 196.075 224.006 C 194.414 227.517, 193.239 230.573, 193.463 230.797 C 193.687 231.021, 194.900 230.483, 196.158 229.602 C 199.291 227.407, 202.080 227.589, 202.718 230.028 C 203.101 231.493, 203.782 231.887, 205.172 231.445 C 207.526 230.698, 210 232.583, 210 235.122 C 210 236.522, 210.729 237, 212.862 237 C 215.591 237, 215.755 236.740, 216.379 231.434 C 216.739 228.373, 218.151 222.669, 219.516 218.760 C 222.190 211.108, 222.731 204.131, 220.800 202.200 C 218.925 200.325, 213.538 200.789, 210.632 203.075 M 100.199 205.750 C 97.948 210.718, 98.009 224.006, 100.307 229.324 C 101.644 232.417, 102.342 233.026, 103.960 232.513 C 105.060 232.164, 106.746 232.318, 107.706 232.856 C 109.151 233.664, 109.630 233.286, 110.476 230.666 C 111.354 227.952, 112.035 227.456, 115.250 227.190 C 119.648 226.826, 119.781 226.163, 116.968 218.643 C 114.389 211.750, 109.887 205.510, 106.069 203.536 C 102.095 201.481, 102.141 201.463, 100.199 205.750 M 356.006 213.928 L 347.512 215.611 346.745 220.941 C 344.724 234.982, 331.219 248.842, 320.614 247.760 C 318.351 247.529, 315.768 247.012, 314.873 246.610 C 313.537 246.011, 313.116 246.744, 312.525 250.690 C 311.641 256.589, 309.860 262.013, 305.278 272.756 L 301.757 281.013 305.660 285.256 C 311.407 291.506, 312.707 295.232, 310.925 300.346 C 308.475 307.377, 299.546 311.625, 289.047 310.754 C 282.135 310.181, 280.036 312.142, 280.753 318.501 C 281.215 322.604, 279.888 325.204, 276.806 326.231 C 275.836 326.555, 275.832 327.497, 276.788 330.687 C 278.624 336.815, 278.280 347.888, 276.028 355.145 C 273.847 362.169, 269.565 369.166, 262.161 377.803 C 259.475 380.936, 257.032 384.512, 256.732 385.750 C 256.206 387.923, 256.432 388.001, 263.344 388.022 C 271.353 388.047, 288.298 389.087, 288.874 389.588 C 289.079 389.767, 288.977 390.618, 288.646 391.479 C 288.121 392.849, 286.017 392.961, 271.773 392.380 L 255.500 391.715 251.772 398.994 L 248.044 406.273 259.772 405.726 C 266.222 405.425, 276.113 404.625, 281.750 403.948 C 290.719 402.871, 292 402.480, 292 400.819 C 292 398.240, 295.315 391.927, 297.894 389.595 C 299.052 388.547, 300 387.285, 300 386.790 C 300 383.566, 284.236 363.690, 279.901 361.449 C 276.243 359.557, 276.063 357, 279.586 357 C 282.907 357, 290.909 365.204, 298.134 376.015 C 303.950 384.720, 304.475 384.812, 307.777 377.699 C 310.454 371.932, 310.934 368.660, 311.944 349.316 C 312.861 331.751, 313.849 327, 316.589 327 C 317.898 327, 318.102 327.654, 317.607 330.250 C 317.266 332.038, 316.547 341.375, 316.010 351 C 314.670 375.014, 313.210 379.667, 303.959 389.406 C 298.593 395.055, 297 397.404, 297 399.666 C 297 402.810, 298.549 405, 300.771 405 C 302.379 405, 305 402.594, 305 401.118 C 305 399.038, 307.361 395, 308.577 395 C 310.519 395, 310.756 397.030, 309.305 401.242 C 308.349 404.015, 308.271 405.637, 309.024 407.046 C 311.325 411.343, 317.597 408.087, 319.706 401.500 C 320.234 399.850, 321.304 398.500, 322.083 398.500 C 323.180 398.500, 323.424 399.798, 323.164 404.250 C 322.844 409.723, 322.942 410, 325.192 410 C 328.384 410, 331.366 407.758, 334.168 403.251 C 336.483 399.528, 336.504 399.198, 337.082 359 C 337.402 336.725, 338.017 317.488, 338.449 316.250 C 338.910 314.928, 340.058 314, 341.233 314 C 342.933 314, 343.119 314.413, 342.473 316.750 C 342.055 318.262, 341.525 337.530, 341.296 359.567 L 340.878 399.633 345.489 403.883 C 350.251 408.272, 351.601 408.580, 353.421 405.694 C 354.187 404.480, 354.150 403.469, 353.287 402.089 C 352.339 400.569, 352.370 399.938, 353.438 399.052 C 354.482 398.185, 355.636 398.734, 358.556 401.488 C 364.426 407.024, 370 407.532, 370 402.531 C 370 401.139, 369.100 399.100, 368 398 C 366.900 396.900, 366 395.325, 366 394.500 C 366 391.775, 368.791 392.937, 372.416 397.173 C 374.380 399.468, 376.296 401.037, 376.673 400.660 C 377.799 399.534, 374.602 393.895, 369.113 387.326 C 361.334 378.016, 359.866 373.929, 359.916 361.713 C 359.963 350.294, 362.726 332.619, 366.500 319.597 C 367.875 314.852, 369 309.234, 369 307.113 C 369 303.431, 368.829 303.228, 365.250 302.642 C 360.385 301.847, 349.778 296.784, 344.928 292.943 C 338.792 288.083, 334.726 280, 338.418 280 C 339.199 280, 340.742 281.462, 341.848 283.250 C 347.049 291.653, 357.604 297.337, 372.035 299.505 C 392.396 302.565, 407.061 297.302, 413.849 284.500 C 416.231 280.007, 416.500 278.435, 416.500 269 C 416.500 256.162, 415.068 253.058, 406.954 248.306 C 398.318 243.248, 396.957 242.037, 396.319 238.845 C 395.965 237.076, 394.852 235.511, 393.609 235.033 C 390.359 233.783, 386.787 230.057, 382.045 222.972 C 375.164 212.689, 374.319 211.982, 369.076 212.123 C 366.559 212.190, 360.678 213.003, 356.006 213.928 M 94.705 224.669 C 92.301 228.563, 90.794 239.125, 90.447 254.500 C 90.072 271.130, 90.095 271.363, 91.507 265.225 C 92.300 261.774, 94.812 254.944, 97.087 250.046 L 101.224 241.141 98.221 232.490 C 96.569 227.732, 94.987 224.212, 94.705 224.669 M 376.388 231.433 C 368.577 234.833, 366.773 241.394, 372.011 247.360 C 375.567 251.410, 379.212 252.569, 383.201 250.917 C 388.519 248.714, 390.709 240.206, 387.537 234.072 C 385.312 229.769, 382.007 228.987, 376.388 231.433 M 402.757 234.278 C 399.624 235.852, 399.174 236.456, 399.994 237.990 C 401.121 240.094, 407.832 244.502, 408.655 243.678 C 409.367 242.967, 408.019 233.097, 407.156 232.700 C 406.795 232.534, 404.816 233.244, 402.757 234.278 M 379.545 235.750 C 381.392 240.007, 381.218 243.734, 379.101 245.216 C 376.870 246.779, 377.269 248, 380.012 248 C 382.334 248, 384.857 244.965, 385.592 241.289 C 386.061 238.943, 385.706 237.706, 384.104 236.104 C 381.464 233.464, 378.452 233.230, 379.545 235.750 M 345 237.565 C 340.169 240.944, 339 242.793, 339 247.056 C 339 257.984, 353.964 261.435, 358.658 251.590 C 361.622 245.376, 357.710 237.754, 350.500 235.690 C 349.259 235.335, 347.172 236.046, 345 237.565 M 347.658 240.771 C 345.935 241.156, 345.951 241.277, 347.908 242.648 C 350.387 244.385, 350.711 249.146, 348.500 251.357 C 347.675 252.182, 347 253.114, 347 253.429 C 347 254.767, 350.936 253.838, 353.365 251.927 C 356.591 249.390, 356.858 245.086, 353.952 242.457 C 351.743 240.458, 350.526 240.132, 347.658 240.771 M 121.207 250.509 C 118.848 251.534, 117.333 253.254, 115.865 256.572 C 113.367 262.219, 113.946 266.674, 117.662 270.389 C 125.058 277.785, 136.060 274.876, 138.358 264.916 C 139.187 261.326, 135.331 254.068, 131.102 251.258 C 127.178 248.650, 125.736 248.541, 121.207 250.509 M 174.939 251.643 C 163.277 258.885, 167.374 274, 181 274 C 188.981 274, 193 269.926, 193 261.835 C 193 258.440, 192.356 257.120, 189.118 253.882 C 185.928 250.693, 184.545 250.005, 181.368 250.027 C 179.240 250.041, 176.348 250.769, 174.939 251.643 M 124 252.706 C 118.441 254.738, 115.513 262.082, 118.466 266.588 C 120.911 270.320, 126.024 272.236, 129.915 270.880 C 133.040 269.790, 134.122 268, 131.655 268 C 129.667 268, 127 264.660, 127 262.171 C 127 260.977, 127.972 259.028, 129.161 257.839 L 131.321 255.679 129.050 253.839 C 126.652 251.897, 126.380 251.836, 124 252.706 M 390.388 252.980 C 386.845 254.412, 383.800 259.069, 384.524 261.951 C 385.390 265.402, 386.701 266.807, 391.195 269.100 C 394.576 270.825, 394.951 271.372, 394.395 273.777 C 392.677 281.211, 383.787 288, 375.772 288 C 368.950 288, 362.699 284.186, 361.840 279.500 C 361.247 276.272, 358.540 277.090, 358.198 280.601 C 357.955 283.096, 358.587 284.308, 361.434 286.808 C 369.506 293.895, 380.807 294.083, 389.723 287.278 C 393.761 284.195, 394.613 283.902, 396.360 284.993 C 400.108 287.333, 403.555 287.807, 406.830 286.430 C 408.573 285.696, 410 284.384, 410 283.514 C 410 282.204, 409.181 282.040, 405.242 282.562 C 401.260 283.090, 400.190 282.867, 398.674 281.192 C 397.088 279.439, 397.011 278.694, 398.059 275.197 C 399.029 271.959, 399.973 270.921, 403.043 269.715 C 409.609 267.136, 411.473 260.533, 407.409 254.250 C 406.129 252.271, 405.143 252.008, 399.227 252.063 C 395.527 252.098, 391.550 252.511, 390.388 252.980 M 176.314 254.950 C 170.166 258.699, 169.230 264.333, 174.077 268.411 C 176.358 270.331, 178.281 271, 181.518 271 C 186.141 271, 188.316 269.577, 185.013 268.714 C 180.399 267.507, 180.398 258.493, 185.012 257.287 C 187.697 256.584, 187.513 255.555, 184.453 254.161 C 181.010 252.592, 180.025 252.687, 176.314 254.950 M 262.106 259.750 C 258.273 263.596, 252.480 274.381, 250.451 281.448 C 247.494 291.746, 249.934 304.354, 258.788 324.519 C 262.049 331.947, 263.654 340.257, 262.622 344.370 C 262.280 345.732, 260.843 348.221, 259.429 349.902 C 258.014 351.584, 257.130 353.401, 257.463 353.941 C 257.797 354.480, 258.074 359.959, 258.080 366.116 C 258.086 372.273, 258.457 376.903, 258.905 376.405 C 272.684 361.101, 277.869 345.293, 273.500 331.907 C 272.530 328.933, 271.353 326.013, 270.885 325.418 C 269.424 323.560, 263.315 307.675, 262.648 304 C 261.583 298.128, 263.642 289.561, 268.441 279.903 C 273.682 269.356, 274.342 263.976, 270.927 259.635 C 268.273 256.260, 265.548 256.295, 262.106 259.750 M 146 281.288 C 142.104 283.249, 142.304 286.827, 146.590 291.834 C 149.974 295.788, 150.163 296.327, 148.951 298.592 C 147.390 301.508, 144.310 302.468, 139.446 301.556 C 135.412 300.799, 132.010 296.316, 132.004 291.750 C 132.001 289.974, 131.469 289, 130.500 289 C 128.250 289, 128.613 294.539, 131.161 299.072 C 134.472 304.963, 144.135 307.140, 149.107 303.115 C 151.403 301.255, 151.477 301.262, 154.551 303.607 C 161.288 308.745, 167.930 307.668, 175.952 300.137 C 180.960 295.435, 182.682 291, 179.500 291 C 178.675 291, 178 291.622, 178 292.381 C 178 294.340, 172.200 299.816, 167.634 302.168 C 162.916 304.598, 159.856 304.010, 155.727 299.881 L 152.710 296.863 157.355 292.147 C 162.491 286.932, 163.176 283.937, 159.777 281.557 C 157.108 279.687, 149.476 279.538, 146 281.288 M 92.343 284.500 C 93.611 289.589, 94.202 291, 95.067 291 C 96.539 291, 96.170 289.316, 93.923 285.774 C 92.718 283.876, 92.055 283.341, 92.343 284.500 M 146 284.923 C 146 286.314, 151.022 292, 152.250 292 C 153.450 292, 159 286.096, 159 284.820 C 159 284.369, 156.075 284, 152.500 284 C 148.925 284, 146 284.415, 146 284.923 M 95.428 294.328 C 94.815 295.924, 96.608 301, 97.784 301 C 98.243 301, 99.466 300.380, 100.503 299.621 C 102.301 298.307, 102.309 298.120, 100.671 295.621 C 98.826 292.805, 96.255 292.171, 95.428 294.328 M 208.750 301.572 C 207.238 302.393, 206 303.469, 206 303.964 C 206 304.458, 209.600 307.202, 214 310.061 C 218.400 312.920, 222 315.876, 222 316.629 C 222 317.383, 221.721 318, 221.381 318 C 220.197 318, 208.671 310.650, 205.529 307.891 L 202.368 305.116 197.684 306.800 C 195.108 307.726, 193 308.783, 193 309.148 C 193 309.514, 196.150 312.729, 200 316.294 C 203.850 319.858, 207 323.275, 207 323.887 C 207 326.322, 204.146 324.617, 196.594 317.669 L 188.687 310.396 176.821 315.234 C 161.523 321.471, 154.957 321.792, 140.970 316.990 C 135.910 315.252, 131.403 314.206, 130.955 314.665 C 130.507 315.124, 128.917 320.225, 127.422 326 C 125.092 335, 124.641 339.072, 124.265 354.500 C 123.732 376.384, 125.356 389.414, 129.666 397.816 C 133.069 404.451, 134.745 405.361, 135.182 400.811 C 135.627 396.179, 138.403 396.325, 138.789 401 C 139.234 406.401, 140.212 408.009, 140.917 404.500 C 141.626 400.973, 144.351 400.449, 144.820 403.750 C 144.995 404.988, 145.558 406, 146.070 406 C 147.530 406, 147.168 398.550, 145.073 385.500 C 140.622 357.779, 140.061 347.500, 143 347.500 C 144.190 347.500, 144.547 349.156, 144.725 355.500 C 145.044 366.866, 146.637 372.593, 150.744 377.138 C 152.654 379.253, 154.571 380.765, 155.002 380.499 C 155.932 379.924, 157.336 364.613, 157.432 354 C 157.469 349.875, 157.950 346.365, 158.500 346.200 C 161.345 345.348, 161.320 361.125, 158.442 381.924 C 156.801 393.784, 156.540 407, 157.945 407 C 158.465 407, 159.484 405.762, 160.209 404.250 C 161.731 401.073, 163.490 401.040, 163.522 404.187 C 163.553 407.313, 165.812 407.598, 166.572 404.571 C 167.427 401.164, 169.784 401.281, 170.184 404.750 C 170.991 411.765, 175.273 404.201, 178.099 390.766 C 180.469 379.499, 181.513 360.085, 180.276 350.264 C 179.325 342.715, 179.975 339.575, 182.058 341.658 C 183.948 343.548, 184.394 373.924, 182.679 384 C 181.884 388.675, 181.411 392.804, 181.630 393.176 C 182.117 394.006, 193.199 393.018, 194.275 392.048 C 194.701 391.664, 193.870 388.773, 192.427 385.622 C 190.107 380.554, 189.845 378.890, 190.152 371.172 C 190.446 363.797, 190.993 361.450, 193.694 355.975 C 195.451 352.414, 198.601 347.853, 200.694 345.839 C 204.487 342.191, 211.313 338.647, 212.418 339.752 C 213.663 340.996, 212.854 342.034, 209.182 343.907 C 204.308 346.394, 198.375 352.954, 195.642 358.878 C 192.579 365.517, 192.594 379.792, 195.670 385.500 C 198.380 390.531, 203.264 395.166, 208.750 397.913 C 212.837 399.959, 213.690 400.977, 212.398 402.269 C 211.702 402.964, 205.775 400.424, 201.717 397.691 C 199.215 396.006, 198.407 395.942, 193.717 397.062 C 188.040 398.417, 181.235 402.224, 180.345 404.543 C 180.038 405.344, 180.104 406.788, 180.493 407.750 C 181.138 409.346, 181.269 409.321, 181.988 407.465 C 182.973 404.922, 185.820 402.487, 186.736 403.403 C 187.115 403.781, 186.879 404.964, 186.212 406.032 C 185.545 407.099, 185 408.429, 185 408.986 C 185 410.558, 187.604 410.182, 189.086 408.396 C 191.001 406.089, 195.101 404.701, 196.339 405.939 C 197.024 406.624, 196.759 407.609, 195.521 408.976 C 193.709 410.979, 193.736 411, 198.095 410.965 C 200.518 410.946, 206.100 410.224, 210.500 409.360 C 214.900 408.496, 223.757 407.494, 230.182 407.133 C 240.455 406.556, 242.156 406.202, 244.289 404.198 C 253.028 395.989, 257.547 369.687, 253.501 350.588 C 249.775 333.001, 238 316.511, 220.702 304.658 C 213.227 299.536, 212.737 299.409, 208.750 301.572 M 397 302.107 C 393.456 303.248, 388.210 303.900, 382.250 303.939 L 373 304 372.988 307.750 C 372.981 309.813, 371.886 315.438, 370.554 320.250 L 368.134 329 372.817 329.010 C 375.691 329.016, 379.566 329.982, 382.849 331.510 C 385.791 332.879, 388.309 334, 388.443 334 C 389.603 334, 403.656 301.104, 402.753 300.504 C 402.614 300.412, 400.025 301.133, 397 302.107 M 100.701 302.598 C 97.668 304.242, 97.679 304.696, 100.939 312.372 L 102.587 316.253 107.391 310.910 L 112.195 305.567 109.347 303.288 C 106.036 300.638, 104.536 300.519, 100.701 302.598 M 109.470 313.030 L 103.503 319.060 108.218 328.280 C 110.811 333.351, 114.629 340.200, 116.702 343.500 L 120.472 349.500 121.698 340 C 122.373 334.775, 124.027 326.450, 125.375 321.500 C 126.723 316.550, 127.752 312.494, 127.663 312.486 C 127.573 312.479, 124.903 311.241, 121.728 309.736 C 118.553 308.231, 115.839 307, 115.697 307 C 115.554 307, 112.752 309.713, 109.470 313.030 M 287.943 325.057 C 284.997 328.003, 285.622 333.648, 289.186 336.298 C 291.525 338.037, 292.258 338.136, 294.851 337.062 C 298.200 335.675, 300.518 331.207, 299.520 328.063 C 298.835 325.904, 294.263 323, 291.550 323 C 290.697 323, 289.074 323.926, 287.943 325.057 M 251.117 333.190 C 252.338 335.561, 254.112 339.975, 255.060 343 L 256.784 348.500 258.454 345 C 259.934 341.898, 259.972 340.817, 258.794 335.500 L 257.464 329.500 253.181 329.190 L 248.898 328.880 251.117 333.190 M 367.668 333.750 C 366.390 335.877, 363.800 359.956, 364.219 365.801 C 364.830 374.311, 367.394 379.370, 375.439 387.935 C 378.883 391.602, 381.882 395.145, 382.103 395.809 C 382.709 397.627, 412.758 403.200, 415.125 401.933 C 417.717 400.546, 417.469 398.354, 414.500 396.408 C 411.561 394.483, 411.203 392, 413.864 392 C 415.737 392, 421 396.525, 421 398.136 C 421 399.679, 424.044 399.048, 424.687 397.372 C 426.214 393.395, 414.373 388.822, 397.460 386.856 C 389.596 385.942, 386.372 385.911, 385.047 386.739 C 383.776 387.533, 382.947 387.547, 382.187 386.787 C 381.427 386.027, 382.155 383.657, 384.698 378.609 C 389.932 368.216, 392.067 361.270, 392.106 354.500 C 392.163 344.699, 388.020 337.994, 379.782 334.553 C 375.918 332.939, 368.452 332.444, 367.668 333.750 M 147.534 381.250 C 147.902 382.488, 149.489 384.823, 151.060 386.439 C 153.581 389.032, 153.997 389.173, 154.589 387.630 C 155.067 386.384, 154.179 384.890, 151.504 382.440 C 147.083 378.390, 146.645 378.259, 147.534 381.250 M 150.980 400.038 C 149.819 402.206, 150.511 406, 152.067 406 C 152.580 406, 153 404.200, 153 402 C 153 397.502, 152.564 397.078, 150.980 400.038 M 272.500 408.540 C 267.550 409.248, 254.725 409.868, 244 409.917 C 228.896 409.986, 222.181 410.456, 214.215 412.003 C 204.095 413.968, 192.964 414.630, 191.678 413.345 C 191.317 412.984, 188.537 412.579, 185.498 412.444 L 179.974 412.200 184.515 415.667 C 187.259 417.762, 188.947 419.801, 188.778 420.817 C 188.567 422.097, 189.459 422.620, 192.500 423 L 196.500 423.500 196.782 435.250 C 196.952 442.337, 197.466 447, 198.077 447 C 198.635 447, 200.195 445.895, 201.545 444.545 C 203.653 442.438, 204 441.163, 204 435.525 L 204 428.960 209.250 432.050 C 212.137 433.750, 220.542 438.146, 227.927 441.820 C 241.346 448.496, 241.358 448.500, 249.927 448.500 C 257.775 448.500, 259.166 448.182, 266.377 444.739 L 274.254 440.978 273.652 443.989 C 273.145 446.524, 273.362 447, 275.025 447 C 277.353 447, 281 443.643, 281 441.500 C 281 440.415, 282.114 440, 285.025 440 C 288.403 440, 289.203 440.404, 290.005 442.512 C 290.989 445.101, 295.473 447.860, 296.700 446.633 C 297.081 446.253, 296.460 442.401, 295.320 438.073 L 293.248 430.205 300.374 425.669 L 307.500 421.134 307.779 434.067 L 308.058 447 315.307 447 C 323.198 447, 327 445.356, 327 441.943 C 327 440.235, 326.275 440, 321 440 L 315 440 315 427.952 C 315 416.049, 315.033 415.876, 317.750 413.537 C 321.126 410.632, 320.334 409.424, 316.399 411.476 C 312.342 413.591, 310.288 413.379, 307.459 410.550 C 305.344 408.435, 304.611 408.240, 302.088 409.119 C 299.844 409.901, 298.463 409.774, 296.133 408.569 C 292.549 406.715, 285.306 406.707, 272.500 408.540 M 127.110 417.890 C 125.173 419.827, 125 421.101, 125 433.406 C 125 446.612, 125.032 446.804, 127.140 446.253 C 128.380 445.929, 129.951 444.121, 130.878 441.950 C 132.320 438.573, 132.916 438.157, 136.956 437.701 C 140.384 437.315, 142.114 436.436, 144.331 433.956 C 146.901 431.080, 147.173 430.157, 146.752 425.774 C 146.076 418.735, 143.720 416.704, 135.630 416.189 C 130.119 415.838, 128.923 416.077, 127.110 417.890 M 161.736 417.250 C 159.056 419.286, 158.327 422.928, 158.506 433.409 C 158.658 442.401, 158.884 443.488, 160.948 445.159 C 164.109 447.718, 170.967 447.600, 174.365 444.927 C 178.641 441.564, 177.777 440.140, 171.250 439.800 C 166.156 439.534, 165.464 439.243, 165.180 437.250 C 164.900 435.275, 165.300 435, 168.455 435 C 171.393 435, 172.228 434.532, 173.025 432.435 C 174.570 428.370, 174.271 428, 169.430 428 C 165.264 428, 164.889 427.802, 165.180 425.750 C 165.453 423.832, 166.197 423.455, 170.220 423.196 C 173.891 422.960, 175.390 422.320, 176.970 420.312 C 178.086 418.892, 179 417.341, 179 416.865 C 179 415.487, 163.606 415.830, 161.736 417.250 M 346.796 417.750 C 345.264 419.521, 337.678 446.011, 338.475 446.808 C 339.808 448.141, 344.325 445.600, 345.323 442.955 C 346.289 440.395, 346.947 440, 350.244 440 C 353.388 440, 354.216 440.437, 355.005 442.512 C 355.974 445.062, 360.466 447.867, 361.663 446.670 C 362.514 445.820, 356.177 421.190, 354.351 418.250 C 352.674 415.550, 348.914 415.301, 346.796 417.750 M 374.655 417.829 C 373.314 419.311, 373 421.872, 373 431.329 C 373 445.623, 373.829 447, 382.427 447 C 387.155 447, 388.135 446.646, 390.026 444.250 L 392.197 441.500 385.848 441 L 379.500 440.500 379.206 432.655 C 378.854 423.252, 379.798 421.543, 384.890 422.370 C 388.966 423.031, 391 421.702, 391 418.378 C 391 416.090, 390.722 416, 383.655 416 C 377.809 416, 375.972 416.373, 374.655 417.829 M 406 418 C 404.236 419.764, 404 421.333, 404 431.309 C 404 444.915, 404.575 446.061, 411.758 446.751 C 416.244 447.182, 417.157 446.934, 419.425 444.666 C 420.841 443.249, 422 441.643, 422 441.095 C 422 440.548, 419.413 439.965, 416.250 439.800 C 410.863 439.519, 410.500 439.342, 410.500 437 C 410.500 434.833, 410.999 434.459, 414.250 434.190 C 416.590 433.996, 418 433.369, 418 432.521 C 418 431.775, 418.273 430.452, 418.607 429.582 C 419.106 428.280, 418.397 428, 414.607 428 C 410.360 428, 410 427.805, 410 425.500 C 410 423.223, 410.382 423, 414.277 423 C 419.040 423, 422.479 421.102, 423.282 418.031 C 423.782 416.116, 423.360 416, 415.906 416 C 409.333 416, 407.663 416.337, 406 418 M 132 427 C 132 430.901, 132.087 431, 135.481 431 C 138.365 431, 139.070 430.569, 139.593 428.487 C 140.414 425.213, 138.513 423, 134.878 423 C 132.187 423, 132 423.260, 132 427 M 349.161 427.968 C 347.298 433.311, 347.639 435, 350.579 435 C 352.968 435, 353.107 434.760, 352.450 431.750 C 350.961 424.927, 350.433 424.320, 349.161 427.968" stroke="none" fill="#4b79aa" fill-rule="evenodd"/></svg>